<svg width="18" height="18" viewBox="0 0 18 18" fill="none" xmlns="http://www.w3.org/2000/svg">
<path fill-rule="evenodd" clip-rule="evenodd" d="M9 1.75C4.99594 1.75 1.75 4.99594 1.75 9C1.75 13.0041 4.99594 16.25 9 16.25C13.0041 16.25 16.25 13.0041 16.25 9C16.25 4.99594 13.0041 1.75 9 1.75ZM0.25 9C0.25 4.16751 4.16751 0.25 9 0.25C13.8325 0.25 17.75 4.16751 17.75 9C17.75 13.8325 13.8325 17.75 9 17.75C4.16751 17.75 0.25 13.8325 0.25 9ZM8.54344 3.87029C11.0901 3.65436 12.4186 5.19011 12.8733 6.11681C13.0558 6.48866 12.9023 6.93804 12.5304 7.12051C12.1585 7.30298 11.7092 7.14946 11.5267 6.7776C11.263 6.2403 10.4355 5.21525 8.67016 5.36492C6.99347 5.50748 5.60525 7.09532 5.76176 9.32223C5.91383 11.4864 7.55875 12.65 8.966 12.65C9.82669 12.65 10.4732 12.3025 10.9178 11.9403C11.1407 11.7587 11.3078 11.577 11.4175 11.4431C11.472 11.3764 11.5113 11.3228 11.5355 11.2884C11.5475 11.2712 11.5556 11.259 11.5599 11.2525L11.5628 11.2481L11.562 11.2494L11.5614 11.2503L11.5611 11.2507C11.5618 11.2497 11.5625 11.2486 11.5631 11.2475C11.7808 10.8975 12.2406 10.7885 12.5923 11.0044C12.9453 11.2211 13.0559 11.6829 12.8392 12.0359L12.2 11.6436C12.8392 12.0359 12.839 12.0362 12.8389 12.0365L12.8385 12.0371L12.8376 12.0385L12.8356 12.0417L12.8304 12.05L12.8149 12.0741C12.8023 12.0934 12.7851 12.1189 12.7635 12.1498C12.7202 12.2114 12.6585 12.295 12.5783 12.393C12.4184 12.5884 12.1813 12.8458 11.8652 13.1033C11.2318 13.6193 10.2613 14.15 8.966 14.15C6.78046 14.15 4.47338 12.3865 4.26545 9.42738C4.06196 6.53194 5.90806 4.09422 8.5433 3.8703L8.54344 3.87029Z" fill="#F1F7E5"/>
</svg>
