<svg width="50" height="50" viewBox="0 0 50 50" fill="none" xmlns="http://www.w3.org/2000/svg">
<g clip-path="url(#clip0_36_409)">
<path d="M26.899 0.0661312C7.04555 -1.38473 -6.40341 19.6812 3.14118 37.1149C7.34867 44.8563 15.8543 49.9835 24.6787 49.999C24.8497 50.0042 25.0207 50.0042 25.1917 50.0042C35.8244 50.0042 45.6877 42.7629 48.8251 32.5628C53.6778 17.2951 42.9129 1.24755 26.899 0.0661312ZM48.2526 30.0575C45.9338 40.8768 36.0524 48.841 24.9766 48.7451C14.9838 48.7969 5.72682 42.2162 2.50383 32.7442C-3.01462 16.6241 9.57678 0.169765 26.5933 1.24237C41.0838 2.18802 51.3771 15.8598 48.2526 30.0575Z" fill="url(#paint0_radial_36_409)"/>
<path d="M48.2525 30.0573C45.9337 40.8765 36.0523 48.8407 24.9766 48.7449C14.9838 48.7967 5.72676 42.216 2.50378 32.7439C-3.01467 16.6238 9.57673 0.169537 26.5932 1.24214C41.0837 2.18779 51.377 15.8596 48.2525 30.0573Z" fill="url(#paint1_radial_36_409)"/>
<path d="M46.0556 21.9582C46.5323 28.9664 39.0889 46.7809 25.2668 45.773C21.049 45.4647 16.4865 43.8714 14.3828 39.9437C11.4629 34.49 4.39777 30.4302 5.38746 23.6733C5.95226 19.8156 8.54567 16.8128 11.5484 14.6883C13.261 13.5484 15.8362 13.8308 16.6679 11.2892C18.5747 5.47019 24.7254 4.38464 30.0469 6.19822C32.0004 6.86406 31.2516 8.53514 31.0055 9.84868C29.6738 16.9605 44.3094 7.26564 46.0556 21.9582Z" fill="url(#paint2_linear_36_409)"/>
<path d="M26.5337 34.8791C15.3206 35.9621 13.1184 17.1112 25.0466 17.233C28.8499 17.6631 32.4227 20.2332 32.2154 23.7774C32.0133 27.2465 22.0956 31.3038 25.2279 31.0732C29.0365 30.7934 30.0261 25.6791 33.3061 27.9383C34.1326 28.5083 34.1171 29.8944 33.7025 30.7778C32.7387 32.8349 30.0754 34.3273 26.5337 34.8791Z" fill="#F2BE2A"/>
<path d="M25.8291 24.6659C23.8031 28.0832 17.6343 25.2643 21.3418 22.1787C23.5259 20.3599 27.6738 21.5724 25.8291 24.6659Z" fill="white"/>
</g>
<defs>
<radialGradient id="paint0_radial_36_409" cx="0" cy="0" r="1" gradientUnits="userSpaceOnUse" gradientTransform="translate(24.9999 25.0002) scale(25.0017 25.0017)">
<stop stop-color="#F5F5F0"/>
<stop offset="0.3756" stop-color="#F3F3EF"/>
<stop offset="0.511" stop-color="#ECEDEA"/>
<stop offset="0.6074" stop-color="#E1E3E2"/>
<stop offset="0.6855" stop-color="#D0D3D7"/>
<stop offset="0.7523" stop-color="#BABFC8"/>
<stop offset="0.8115" stop-color="#9EA7B6"/>
<stop offset="0.8651" stop-color="#7E8AA0"/>
<stop offset="0.9143" stop-color="#586787"/>
<stop offset="0.9581" stop-color="#2F426B"/>
<stop offset="0.9989" stop-color="#01194D"/>
<stop offset="1" stop-color="#00184C"/>
</radialGradient>
<radialGradient id="paint1_radial_36_409" cx="0" cy="0" r="1" gradientUnits="userSpaceOnUse" gradientTransform="translate(25.0024 24.9687) scale(23.7937)">
<stop stop-color="#F5F5F0"/>
<stop offset="0.3756" stop-color="#F3F3EF"/>
<stop offset="0.511" stop-color="#ECEDEA"/>
<stop offset="0.6074" stop-color="#E1E3E2"/>
<stop offset="0.6855" stop-color="#D0D3D7"/>
<stop offset="0.7523" stop-color="#BABFC8"/>
<stop offset="0.8115" stop-color="#9EA7B6"/>
<stop offset="0.8651" stop-color="#7E8AA0"/>
<stop offset="0.9143" stop-color="#586787"/>
<stop offset="0.9581" stop-color="#2F426B"/>
<stop offset="0.9989" stop-color="#01194D"/>
<stop offset="1" stop-color="#00184C"/>
</radialGradient>
<linearGradient id="paint2_linear_36_409" x1="5.29401" y1="25.6075" x2="46.0768" y2="25.6075" gradientUnits="userSpaceOnUse">
<stop stop-color="#F5F5F5"/>
<stop offset="0.4596" stop-color="#F3F3F3"/>
<stop offset="0.6251" stop-color="#EDEDED"/>
<stop offset="0.7431" stop-color="#E1E1E1"/>
<stop offset="0.8385" stop-color="#D0D0D0"/>
<stop offset="0.9194" stop-color="#BABABA"/>
<stop offset="0.9906" stop-color="#A0A0A0"/>
<stop offset="1" stop-color="#9C9C9C"/>
</linearGradient>
<clipPath id="clip0_36_409">
<rect width="50" height="50" fill="white"/>
</clipPath>
</defs>
</svg>
